<?xml version="1.0" encoding="UTF-8"?>
<svg id="Livello_2" data-name="Livello 2" xmlns="http://www.w3.org/2000/svg" viewBox="0 0 147.49 107.18">
  <defs>
    <style>
      .cls-1, .cls-2, .cls-3 {
        fill: none;
      }

      .cls-1, .cls-3 {
        stroke: #000;
        stroke-width: 2px;
      }

      .cls-4 {
        fill: #fff;
      }

      .cls-2 {
        stroke: #fff;
        stroke-width: 5px;
      }

      .cls-3 {
        stroke-miterlimit: 10;
      }
    </style>
  </defs>
  <g id="Livello_1-2" data-name="Livello 1-2">
    <g>
      <path class="cls-3" d="M73.75,106.18c22.41,0,40.58-18.17,40.58-40.58H33.17c0,22.41,18.17,40.58,40.58,40.58h0Z"/>
      <rect class="cls-3" x="1" y="1" width="32.17" height="64.6"/>
      <rect class="cls-3" x="114.33" y="1" width="32.17" height="64.6"/>
    </g>
    <g>
      <path class="cls-4" d="M73.75,106.18c22.41,0,40.58-18.17,40.58-40.58H33.17c0,22.41,18.17,40.58,40.58,40.58h0Z"/>
      <rect class="cls-4" x="1" y="1" width="32.17" height="64.6"/>
      <rect class="cls-4" x="114.33" y="1" width="32.17" height="64.6"/>
    </g>
    <g>
      <path class="cls-2" d="M73.75,106.18c22.41,0,40.58-18.17,40.58-40.58H33.17c0,22.41,18.17,40.58,40.58,40.58h0Z"/>
      <rect class="cls-2" x="1" y="1" width="32.17" height="64.6"/>
      <rect class="cls-2" x="114.33" y="1" width="32.17" height="64.6"/>
    </g>
    <g>
      <path class="cls-1" d="M73.75,106.18c22.41,0,40.58-18.17,40.58-40.58H33.17c0,22.41,18.17,40.58,40.58,40.58h0Z"/>
      <rect class="cls-1" x="1" y="1" width="32.17" height="64.6"/>
      <rect class="cls-1" x="114.33" y="1" width="32.17" height="64.6"/>
    </g>
  </g>
</svg>